<svg aria-hidden="true" style="position: absolute; width: 0; height: 0; overflow: hidden;" version="1.1" xmlns="http://www.w3.org/2000/svg" xmlns:xlink="http://www.w3.org/1999/xlink">
<defs>
<symbol id="icon-alert" viewBox="0 0 32 32">
<path d="M22.92 0.292c-0.181-0.18-0.43-0.292-0.706-0.292h-12.428c-0.276 0-0.525 0.112-0.706 0.292l-8.788 8.788c-0.18 0.181-0.292 0.43-0.292 0.706v0 12.428c0 0.276 0.112 0.525 0.292 0.706l8.788 8.788c0.181 0.18 0.43 0.292 0.706 0.292h12.428c0.276-0 0.525-0.112 0.706-0.292l8.788-8.788c0.18-0.181 0.292-0.43 0.292-0.706v0-12.428c-0-0.276-0.112-0.525-0.292-0.706l-8.788-8.788zM16 8c1.070 0 1.908 0.924 1.8 1.99l-0.7 7.014c-0.050 0.568-0.523 1.010-1.1 1.010s-1.050-0.442-1.1-1.006l-0-0.004-0.7-7.014c-0.006-0.054-0.009-0.117-0.009-0.18 0-0.999 0.81-1.809 1.809-1.81h0zM16.004 20c1.105 0 2 0.895 2 2s-0.895 2-2 2v0c-1.105 0-2-0.895-2-2s0.895-2 2-2v0z"></path>
</symbol>
</defs>
</svg>
